<svg id="Capa_1" enable-background="new 0 0 512 512" viewBox="0 0 512 512" width="25" height="25" xmlns="http://www.w3.org/2000/svg"><path d="m497 120.5h-67.467v30h67.467c8.284 0 15-6.716 15-15s-6.716-15-15-15z" fill="#000000" style="fill: rgb(154, 153, 150);"/><path d="m352.4 72.3h-3.2v126.4h3.2c26.078 0 47.133-21.097 47.133-47.133v-32.134c0-25.606-20.702-47.133-47.133-47.133z" fill="#000000" style="fill: rgb(154, 153, 150);"/><path d="m272.066 24.1h-192.8c-43.853 0-79.266 35.506-79.266 79.267v128.533c0 8.284 6.716 15 15 15h257.066c26.078 0 47.134-21.095 47.134-47.133v-128.534c0-25.607-20.702-47.133-47.134-47.133zm-177.799 143.533c0 8.284-6.716 15-15 15s-15-6.716-15-15v-64.267c0-8.284 6.716-15 15-15s15 6.716 15 15zm64.266 0c0 8.284-6.716 15-15 15s-15-6.716-15-15v-64.267c0-8.284 6.716-15 15-15s15 6.716 15 15z" fill="#000000" style="fill: rgb(154, 153, 150);"/><path d="m186.001 327.233h37.865c8.284 0 15-6.716 15-15v-35.333h-32.734z" fill="#000000" style="fill: rgb(154, 153, 150);"/><path d="m191.729 377.567c-13.087 0-25.279-6.468-32.614-17.301-7.337-10.834-8.814-24.558-3.954-36.71l18.662-46.656h-130.359c-.162 3.08-.813 6.155-1.991 9.101l-33.505 83.762c-5.287 13.214-7.968 27.133-7.968 41.369v61.768c0 8.284 6.716 15 15 15h176.733c8.284 0 15-6.716 15-15v-80.333c0-8.284-6.719-15-15.004-15z" fill="#000000" style="fill: rgb(154, 153, 150);"/></svg>