<svg id="Layer_1" enable-background="new 0 0 512 512" viewBox="0 0 512 512" width="25" height="30" xmlns="http://www.w3.org/2000/svg"><path clip-rule="evenodd" d="m223.493 231.226h22.507v-18.206h20v18.206h22.507c4.962 0 9.022 4.06 9.022 9.022v44.249c0 4.962-4.06 9.022-9.022 9.022h-65.014c-4.962 0-9.022-4.06-9.022-9.022v-44.249c-.001-4.962 4.06-9.022 9.022-9.022zm53.419 169.512c2.733-2.733 7.165-2.733 9.899 0 2.733 2.733 2.733 7.165 0 9.899-8.141 8.141-19.298 12.763-30.811 12.763s-22.67-4.622-30.811-12.763c-2.733-2.733-2.733-7.165 0-9.899 2.733-2.733 7.165-2.733 9.898 0 5.622 5.622 12.962 8.662 20.913 8.662s15.29-3.039 20.912-8.662zm-20.912-11.412c5.247 0 9.5-4.253 9.5-9.5s-4.253-9.5-9.5-9.5-9.5 4.253-9.5 9.5c0 5.246 4.253 9.5 9.5 9.5zm-54.949 45.449c14.564 14.565 34.354 22.762 54.949 22.762 20.596 0 40.385-8.197 54.949-22.762 2.733-2.733 2.733-7.165 0-9.899-2.733-2.733-7.165-2.733-9.899 0-12.045 12.046-28.017 18.66-45.051 18.66-17.033 0-33.006-6.614-45.051-18.66-2.733-2.733-7.165-2.733-9.899 0-2.732 2.733-2.732 7.165.002 9.899zm14.8-327.082h80.297c17.146 0 31.174 14.028 31.174 31.174v31.174h-12.63l-14.056 28.98h-88.606l-14.056-28.98h-13.295v-31.174c-.001-17.146 14.027-31.174 31.172-31.174zm-143.398 2.436h25.599v35.049h72.626v24.863h-72.626v3.518c0 7.04-5.759 12.799-12.799 12.799s-12.8-5.759-12.8-12.799zm341.494 0h25.599v63.429c0 7.04-5.759 12.799-12.799 12.799s-12.8-5.759-12.8-12.799v-3.518h-72.625v-24.863h72.625zm-56.453-24.032c-3.866 0-7-3.134-7-7s3.134-7 7-7h62.253v-10.633c0-3.866 3.134-7 7-7s7 3.134 7 7v10.634h62.253c3.866 0 7 3.134 7 7s-3.134 7-7 7h-62.253v10.032h-14v-10.033zm-341.494 0c-3.866 0-7-3.134-7-7s3.134-7 7-7h62.253v-10.633c0-3.866 3.134-7 7-7s7 3.134 7 7v10.634h62.253c3.866 0 7 3.134 7 7s-3.134 7-7 7h-62.253v10.032h-14v-10.033zm240 160.081c-8.944 0-16.195 7.251-16.195 16.195s7.251 16.195 16.195 16.195 16.195-7.251 16.195-16.195c-.001-8.944-7.251-16.195-16.195-16.195z" fill-rule="evenodd" fill="#000000" style="fill: rgb(154, 153, 150);"/></svg>